<?xml version="1.0" encoding="UTF-8"?>
<svg id="Calque_2" data-name="Calque 2" xmlns="http://www.w3.org/2000/svg" viewBox="0 0 419.01 247.17">
  <defs>
    <style>
      .cls-1 {
        fill: #fff;
      }
    </style>
  </defs>
  <g id="logo">
    <g>
      <path class="cls-1" d="M16.04,120.37s-.26-20.44-16.04-25.79c0,0,19.52-1.44,17.23-22.29C14.93,51.43,7.51,33.76,11.39.88c0,0,7.82,73.35,51.2,88.75,0,0-4.21,6.12-3.19,11.96,0,0-.2-12.09,10.57-11.63,0,0-7.02,12.88-2.31,23.62,0,0-10.09.08-13.91,9.03,0,0-.49-10.33,2.11-20.58,0,0-1.55-3.17-7.08-5.86l-4.47,3.17v20.82s3.5,13.5,23.34,21.72l1.51,41.28s1.69,10.38,9.93,16.7c0,0-18.59.47-33.87,10.88,0,0,12.01-5.39,14.77-5.46,0,0-3.96,4.29-3.13,8.92.83,4.63,1.75,12.37,5.05,17.83,3.3,5.47,5.77,15.13,5.77,15.13,0,0-19.68-40.15-56.72-39.04,0,0,16.78-4.44,16.51-22.47-.28-18.03-1.94-21.36-13.04-29.55-11.1-8.18-.97-6.45,2.08-16.44,3.05-9.99,3.75-19.14,3.75-19.14,0,0,4.44,20.81-2.36,29.55,0,0,8.6-5.41,24.41.55,0,0-6.24,4.44-2.36,7.77,3.88,3.33,2.08,40.5,2.08,40.5,0,0,6.24-7.07,16.09-6.66,0,0-3.05-1.39-6.94-.55,0,0,1.66-8.6-2.64-17.06,0,0,6.24,6.24,7.63,10.4l-.69-32.74s-1.39-7.07-24.14-25.94l-.97-28.99s-6.1-4.99-4.16-7.07c1.94-2.08,4.86-7.77,4.58-12.76,0,0-2.18,12.03-12.62,16.92,0,0,1.39,18.11-2.15,25.91Z"/>
      <path class="cls-1" d="M109.09,167.27l-.15-58.44c.69-.69,1.2-2.84,1.2-2.84-9.71-.34-20.8-13.24-20.8-13.24,1.89,15.39-17.11,19-17.11,19,3.99,2.09,4.18,7.98,4.18,7.98,0,0,.59,43.33.59,49.8s-2.87,8.02-2.87,8.02c12.43-1.18,18.61,12.65,18.61,12.65,9.85-19.86,18.51-9.92,18.51-9.92-2.35-4.34-2.16-13.01-2.16-13.01ZM97.74,115.47l.15,54.8s-3.76.88-4.49,4.26c0,0-2.36-3.23-5.37-4.26l-.59-56.64,3.97-2.65s4.71,3.68,7.95,2.65c0,0-.3,1.1-1.62,1.84Z"/>
      <path class="cls-1" d="M106.1,82.77s15.04,6.94,21.05,16.81l.95,54.42s1.55,12.91,7.08,19.44c0,0-4.68-6.41,3.51-15.14v-50.45s-.62-6.32-4.91-7.25c0,0,21.78-2.38,14.82-25.32,0,0,5.32,8.62,3.17,17.47s-1.74,15.71-1.74,15.71v46.39s.51,6.04,1.64,8.6c0,0-8.85-.65-11.24,9.33s1.06,22.2,8.38,29.12c0,0-17.15-10.37-26.33-36.16,0,0-4.79.13-6.12,2.93,0,0-.67-1.52.41-3.14l-.16-61.93s-.1-14.72-10.5-20.81Z"/>
      <path class="cls-1" d="M163.49,86.82s6.98,15.68,31.63-1.14c0,0-5.94,5.58-6.78,9.81-.85,4.24,2.12,11.9,2.12,11.9,0,0-6.05,1.81-10.79,11.69,0,0,2.3-26.02-9.73-14.77v24.8s14.35-2.74,17.48-2.35c0,0-7.66,4.37-8.1,10.89,0,0-6.25-.2-9.44,2.74v24.91s5.35,7.17,8.28,2.74c2.93-4.43,10.3-19.7,10.3-19.7l-.39,30.07s-2.35,3.65-6.46,9.78c0,0,.59-3.85-1.7-5.15-2.28-1.3-16.57-10.76-24.39-8.8,0,0,3.07-2.41,3.07-8.8v-28.5s-2.28-.52-4.11.46c0,0,1.11-4.37,4.37-5.74v-33.39s4.08-3.65,4.65-11.44Z"/>
      <path class="cls-1" d="M227.25,139.94c0-3.48-6.36-7.58-6.36-7.58,3.72-2.74,7.24-7.15,7.24-7.15v-27.88c0-1.56-14.67-13.99-14.67-13.99-8.81,14.48-21.33,12.82-21.33,12.82,3.29,1.36,3.7,4.17,3.7,4.17,0,0,1.21,32.21,1.21,34.66s-6.7,4.2-6.7,4.2c3.62.93,6,4.6,6,4.6,0,0,.1,8.02-.1,25.54-.2,17.51-3.03,22.2-3.03,22.2,5.67,5.48,5.28,14.35,5.28,14.35,3.13-7.44,3.59-34.3,3.59-34.3,1.24,9.65,1.69,28.36,1.69,28.36,1.24,1.7,1.47,8.45,1.47,8.45,3.52-6.65,2.74-65.8,2.74-65.8,3.33-2.42,3.1-5.65,4.89-5.48,1.79.16,4.08,4.04,4.08,4.04,0,0,.11,32.03.6,50.81.49,18.79,2.89,19.63,2.89,19.63-1.08-3.37,3.03-7.37,3.03-7.37-2.35-4.69-.52-27.71-.52-27.71,1.04,13.82,2.77,22.11,2.77,22.11.98-6.75,6.21-11.16,6.21-11.16-5.58-4.99-4.68-44.05-4.68-47.52ZM217.16,122.12s-6.26,6.26-9.07,7.76v-27.58s1.57-.13.47-2.34c.23.27,3.93,4.5,5.01,4.95,1.11.45,3.98-1.31,3.98-1.31l-.39,18.52Z"/>
      <path class="cls-1" d="M226.61,85.68s18.85,8.6,26.61,7.3,15.33-11.09,15.33-11.09c0,0-5.54,7.5-5.15,13.5.39,6,3.13,9.91,3.13,9.91,0,0-9,6.98-10.24,12.85,0,0-.39-15.91-4.43-16.17s-6.07,1.89-6.07,1.89v24.65s12.33-2.48,17.48-2.41c0,0-7.3,5.54-7.24,10.11,0,0-7.7-.65-9.98,3.65v24.46s6.59,6.33,8.09,3.52c1.5-2.8,10.5-20.09,10.5-20.09,0,0,0,23.41-1.3,25.76s-11.28,4.5-15.13,10.83c0,0-.98-13.57-15.98-11.54,0,0,2.41-2.28,2.54-7.44.13-5.15,0-28.43,0-28.43,0,0-4.04-.72-4.96.72,0,0,.59-4.04,5.35-6.72v-31.76s.85-7.61-8.54-13.49Z"/>
      <path class="cls-1" d="M267.73,94.83s7.3,1.17,12.72-2.48c5.41-3.65,13.76-10.3,17.74-11.54,0,0-11.54,8.15-12.33,17.87-.78,9.72-1.76,76.34-1.76,76.34,0,0-10.13,4.01-9.29,10.91,0,0-2.54-2.2-2.4-13.21.15-11.01.6-70.61.6-70.61,0,0-.65-4.6-5.28-7.27Z"/>
      <path class="cls-1" d="M292.82,104.34s12.6-2.72,21.34-16.55c0,0-1.24,19.83,16.76,18.72,0,0-4.5,7.5-4.11,9.78.39,2.28-12.98,7.83-12.98,7.83,0,0,3.59-11.41,1.5-13.04s-3.85-2.02-5.48-5.12c0,0-3,2.97-5.15,3.49l.59,53.15s-.39,2.48-2.48,4.3c0,0,5.93-.78,8.67.39s4.63-.26,4.7-4.24c.07-3.98,0-20.35,0-20.35,0,0-1.17-1.24-3.46-.91,0,0-.78-8.67-3.78-10.83,0,0,4.04-.33,11.09,2.02,7.04,2.35,12,.85,12,.85,0,0-3.46,2.74-3.65,4.7s-.52,33.52-.52,33.52c0,0-1.96,14.9-16.76,26.22,0,0,7.6-17.54-3.46-20.77s-18.78,2.05-18.78,2.05c0,0,4.11-8.51,4.3-15.07.2-6.55-.34-60.15-.34-60.15Z"/>
      <path class="cls-1" d="M403.48,120.69c1.77-24,15.53-26.28,15.53-26.28-16.78,0-19.41-17.03-13.41-37.63,6-20.61,3.3-56.78,3.3-56.78-4.44,56.35-38.19,83.71-38.19,83.71,7.05,16.04-5.96,17.61-5.96,17.61,5.86.59,6.65,5.97,6.65,5.97v46.71c-.69-5.04-4.11-15.9-11.35-25.68-7.24-9.78-5.48-18.07-5.48-26.15s9.98-14.38,9.98-14.38c-19.44,7.66-32.51,6.23-32.51,6.23,7.43,3.88,7.04,13.33,7.04,13.33,0,0,.13,39.78-.26,55.31-.39,15.52-.39,17.87-3.78,25.43-3.27,7.3-25.24,21.77-26.78,22.78,20.17-12.22,32.8-15.59,43.08-11.43,10.31,4.17,13.83,17.74,8.61,28.04-5.22,10.31-7.89,19.57-7.89,19.57,24.91-41.5,54.7-39.82,56.64-39.66-14.02-1.39-19.72-20.55-16.01-36.35,3.72-15.85,23.48-16.73,13.99-25.44-9.04-8.28-8.49-23.49-8.42-24.93-2.32,23.68,3.33,28.94,3.33,28.94-13.4-.39-13.95,12.04-13.95,12.04l.78-63.79c3.91-3.52,5.35-6.52,5.35-6.52-6.39-5.87-6.52-14.34-6.52-14.34,1.69,10.71,13.69,19.3,13.69,19.3-.52,19.17,2.54,24.39,2.54,24.39ZM369.38,186.04s-5.81,11.15-15.59,2.54l.26-52.7s-.2-1.58-1.52-3.86c.56.69,19.61,24.64,16.85,54.02Z"/>
    </g>
  </g>
</svg>